# xmcd
#
# Track frame offsets: 
#        150
#        23480
#        47912
#        70161
#        87698
#        107829
#        130355
#        151087
#        169578
#        188859
#        205786
#        222854
#        247037
#        257584
#        285706
#
# Disc length: 4185 seconds
#
# Revision: 0
# Processed by: cddbd v1.4PL0 Copyright (c) Steve Scherf et al.
# Submitted via: ExactAudioCopy v0.90b4
#
DISCID=d610570f
DTITLE=Scotty Melton - San Antone
DYEAR=2001
DGENRE=Blues
TTITLE0=Non-AntiDisestablishementarianism Blues
TTITLE1=Dream Killin Town
TTITLE2=Just Like Sunshine
TTITLE3=Dirge
TTITLE4=Monkey's Paw Blues
TTITLE5=He Was A Brother
TTITLE6=Oklahoma Prison Story
TTITLE7=If You Don't Love Me
TTITLE8=Ol Drunk Guitar Pickers
TTITLE9=There You Go Again
TTITLE10=Don't Send Me No Sunshine
TTITLE11=A Nation Is Weeping
TTITLE12=Intro
TTITLE13=She Is
TTITLE14=Bad Lullaby
EXTD=
EXTT0=
EXTT1=
EXTT2=
EXTT3=
EXTT4=
EXTT5=
EXTT6=
EXTT7=
EXTT8=
EXTT9=
EXTT10=
EXTT11=
EXTT12=
EXTT13=
EXTT14=
PLAYORDER=
